# Blender v2.92.0 OBJ File: 'basicGun.blend'
# www.blender.org
mtllib example_gun_model.mtl
o Cube_gun
v 0.096354 -0.011489 -0.196558
v 0.096354 -0.488225 -0.272901
v 0.096354 -0.011489 0.147136
v 0.096354 -0.554121 -0.048380
v -0.096354 -0.011489 -0.196558
v -0.096354 -0.488225 -0.272901
v -0.096354 -0.011489 0.147136
v -0.096354 -0.554121 -0.048380
v 0.096354 -0.181110 -0.161347
v -0.096354 -0.208567 0.057455
v 0.096354 -0.208567 0.057455
v -0.096354 -0.181110 -0.161347
v -0.096354 -0.125311 0.095341
v 0.096354 -0.122726 -0.173467
v 0.096354 -0.125311 0.095341
v -0.096354 -0.122726 -0.173467
v -0.096354 -0.108890 0.102813
v 0.096354 -0.085659 -0.181161
v 0.096354 -0.108890 0.102813
v -0.096354 -0.085659 -0.181161
v 0.096354 0.418887 0.147136
v -0.096354 0.418887 0.147136
v 0.096354 0.271280 -0.196558
v -0.096354 0.271280 -0.196558
v 0.034718 0.245865 2.034261
v -0.034718 0.245865 2.034261
v 0.034718 0.323902 2.034261
v -0.034718 0.323902 2.034261
v -0.096354 0.418887 1.300242
v 0.096354 0.418887 1.300242
v -0.096354 -0.011489 1.300242
v 0.096354 -0.011489 1.300242
v 0.052481 0.131628 2.034261
v -0.052481 0.131628 2.034261
v 0.052481 0.412834 2.034261
v -0.052481 0.412834 2.034261
v 0.034718 0.245865 2.519258
v -0.034718 0.245865 2.519258
v 0.034718 0.323902 2.519258
v -0.034718 0.323902 2.519258
v -0.096354 -0.491214 -1.472311
v 0.096354 -0.491214 -1.472311
v -0.096354 0.107857 -1.472311
v 0.096354 0.107857 -1.472311
v -0.096354 -0.569936 -0.171153
v 0.096354 -0.011489 -0.060284
v -0.096354 -0.011489 -0.060284
v 0.096354 -0.569936 -0.171153
v 0.096354 -0.191997 -0.074592
v -0.096354 -0.191997 -0.074592
v 0.096354 -0.129865 -0.069667
v -0.096354 -0.129865 -0.069667
v 0.096354 -0.090419 -0.066541
v -0.096354 -0.090419 -0.066541
v 0.096354 0.329806 -0.060284
v -0.096354 0.329806 -0.060284
v 0.096354 0.418887 0.905291
v -0.096354 0.418887 0.905291
v -0.083758 -0.011489 0.891478
v 0.083758 -0.011489 0.891478
v 0.096354 0.418887 0.570587
v -0.096354 0.418887 0.570587
v -0.083758 -0.011489 0.584400
v 0.083758 -0.011489 0.584400
v -0.096354 -0.011489 0.570587
v -0.096354 -0.011489 0.905291
v 0.096354 -0.011489 0.570587
v 0.096354 -0.011489 0.905291
v -0.083758 -0.178857 0.584400
v -0.083758 -0.178857 0.891478
v 0.083758 -0.178857 0.584400
v 0.083758 -0.178857 0.891478
v -0.083758 -0.509832 0.697642
v -0.083758 -0.397018 0.983247
v 0.083758 -0.509832 0.697642
v 0.083758 -0.397018 0.983247
v -0.083758 -0.749988 0.903661
v -0.083758 -0.548123 1.135065
v 0.083758 -0.749988 0.903661
v 0.083758 -0.548123 1.135065
v 0.096354 -0.150117 0.193411
v 0.096354 -0.166538 0.185938
v -0.096354 -0.166538 0.185938
v -0.096354 -0.150117 0.193411
v 0.096354 -0.174387 0.301322
v 0.096354 -0.190562 0.302262
v -0.096354 -0.190562 0.302262
v -0.096354 -0.174387 0.301322
v 0.096354 -0.144739 0.423613
v 0.096354 -0.155067 0.436098
v -0.096354 -0.155067 0.436098
v -0.096354 -0.144739 0.423613
v 0.096354 -0.028036 0.429125
v 0.096354 -0.029016 0.445298
v -0.096354 -0.029016 0.445298
v -0.096354 -0.028036 0.429125
v 0.096354 0.418887 0.425561
v -0.096354 0.418887 0.425561
v -0.096354 -0.011489 0.425561
v 0.096354 -0.011489 0.425561
v -0.096354 0.418887 0.451763
v -0.096354 -0.011489 0.451763
v 0.096354 -0.011489 0.451763
v 0.096354 0.418887 0.451763
v 0.096354 0.418887 0.241984
v -0.096354 0.418887 0.241984
v -0.044118 -0.011489 0.233862
v 0.044118 -0.011489 0.233862
v 0.096354 0.418887 0.199150
v -0.096354 0.418887 0.199150
v -0.044118 -0.011489 0.207272
v 0.044118 -0.011489 0.207272
v -0.096354 -0.011489 0.199150
v -0.096354 -0.011489 0.241984
v 0.096354 -0.011489 0.199150
v 0.096354 -0.011489 0.241984
v -0.033519 -0.040463 0.210550
v -0.033519 -0.037864 0.230584
v 0.033519 -0.040463 0.210550
v 0.033519 -0.037864 0.230584
v -0.021048 -0.101406 0.223898
v -0.021048 -0.093983 0.234185
v 0.021048 -0.101406 0.223898
v 0.021048 -0.093983 0.234185
v -0.021048 -0.135744 0.268007
v -0.021048 -0.124012 0.272833
v 0.021048 -0.135744 0.268007
v 0.021048 -0.124012 0.272833
v -0.021048 -0.139241 0.295207
v -0.021048 -0.126645 0.296718
v 0.021048 -0.139241 0.295207
v 0.021048 -0.126645 0.296718
vt 0.625000 0.250000
vt 0.625000 0.250000
vt 0.625000 0.250000
vt 0.625000 0.250000
vt 0.583734 0.750000
vt 0.625000 0.750000
vt 0.625000 1.000000
vt 0.583734 1.000000
vt 0.588490 0.150875
vt 0.625000 0.150875
vt 0.588490 0.250000
vt 0.125000 0.599125
vt 0.375000 0.599125
vt 0.375000 0.750000
vt 0.125000 0.750000
vt 0.588490 0.599124
vt 0.625000 0.599124
vt 0.625000 0.500000
vt 0.588490 0.500000
vt 0.375000 0.250000
vt 0.541504 0.250000
vt 0.541504 0.500000
vt 0.375000 0.500000
vt 0.541504 0.599124
vt 0.541504 0.750000
vt 0.375000 0.150875
vt 0.541504 0.150875
vt 0.541504 1.000000
vt 0.375000 1.000000
vt 0.570244 0.250000
vt 0.570244 0.500000
vt 0.570244 0.599125
vt 0.576777 0.750000
vt 0.570244 0.150875
vt 0.576777 1.000000
vt 0.583734 0.000000
vt 0.576777 0.000000
vt 0.576777 0.000000
vt 0.583734 0.000000
vt 0.625000 0.599125
vt 0.875000 0.599125
vt 0.875000 0.750000
vt 0.625000 0.750000
vt 0.625000 0.750000
vt 0.875000 0.750000
vt 0.875000 0.750000
vt 0.625000 0.750000
vt 0.625000 0.000000
vt 0.625000 0.000000
vt 0.625000 0.150875
vt 0.625000 0.500000
vt 0.625000 0.811162
vt 0.625000 0.811162
vt 0.625000 0.811162
vt 0.625000 0.811162
vt 0.625000 0.000000
vt 0.625000 0.000000
vt 0.625000 0.000000
vt 0.625000 0.000000
vt 0.625000 1.000000
vt 0.625000 0.750000
vt 0.625000 0.750000
vt 0.625000 1.000000
vt 0.625000 0.750000
vt 0.625000 0.750000
vt 0.625000 1.000000
vt 0.625000 0.000000
vt 0.625000 0.000000
vt 0.875000 0.750000
vt 0.625000 0.938838
vt 0.625000 0.938838
vt 0.625000 1.000000
vt 0.625000 0.938838
vt 0.625000 0.938838
vt 0.625000 0.500000
vt 0.625000 0.500000
vt 0.875000 0.500000
vt 0.875000 0.500000
vt 0.541504 0.000000
vt 0.375000 0.000000
vt 0.125000 0.500000
vt 0.625000 0.750000
vt 0.875000 0.750000
vt 0.625000 0.000000
vt 0.625000 0.000000
vt 0.625000 0.983659
vt 0.625000 0.766341
vt 0.625000 0.766341
vt 0.625000 0.983659
vt 0.625000 0.750000
vt 0.625000 0.750000
vt 0.625000 0.750000
vt 0.625000 1.000000
vt 0.625000 1.000000
vt 0.625000 0.000000
vt 0.625000 0.000000
vt 0.875000 0.750000
vt 0.625000 0.983659
vt 0.625000 0.766341
vt 0.625000 0.766341
vt 0.625000 0.983659
vt 0.625000 0.983659
vt 0.625000 0.766341
vt 0.625000 0.983659
vt 0.625000 0.766341
vt 0.625000 0.766341
vt 0.625000 0.983659
vt 0.625000 0.766341
vt 0.625000 0.983659
vt 0.583734 0.750000
vt 0.583734 1.000000
vt 0.583734 1.000000
vt 0.583734 0.750000
vt 0.576777 0.750000
vt 0.576777 1.000000
vt 0.583734 0.000000
vt 0.576777 0.000000
vt 0.576777 0.000000
vt 0.583734 0.000000
vt 0.576777 0.750000
vt 0.576777 1.000000
vt 0.576777 0.000000
vt 0.583734 0.000000
vt 0.583734 0.750000
vt 0.576777 0.750000
vt 0.583734 1.000000
vt 0.576777 1.000000
vt 0.576777 0.750000
vt 0.583734 0.750000
vt 0.583734 1.000000
vt 0.576777 1.000000
vt 0.625000 0.750000
vt 0.875000 0.750000
vt 0.875000 0.750000
vt 0.625000 0.750000
vt 0.625000 0.000000
vt 0.625000 0.000000
vt 0.625000 0.000000
vt 0.625000 0.000000
vt 0.625000 1.000000
vt 0.625000 0.750000
vt 0.625000 0.750000
vt 0.625000 1.000000
vt 0.000000 0.000000
vt 0.000000 0.000000
vt 0.000000 0.000000
vt 0.000000 0.000000
vt 0.000000 0.000000
vt 0.000000 0.000000
vt 0.000000 0.000000
vt 0.000000 0.000000
vt 0.625000 0.750000
vt 0.625000 0.750000
vt 0.625000 0.760537
vt 0.625000 0.989463
vt 0.625000 0.989463
vt 0.625000 0.760537
vt 0.625000 0.000000
vt 0.625000 0.000000
vt 0.875000 0.750000
vt 0.625000 1.000000
vt 0.625000 0.989463
vt 0.625000 0.760537
vt 0.625000 0.989463
vt 0.625000 0.760537
vt 0.625000 0.989463
vt 0.625000 0.760537
vt 0.625000 0.989463
vt 0.625000 0.760537
vt 0.625000 0.760537
vt 0.625000 0.989463
vt 0.625000 0.760537
vt 0.625000 0.989463
vt 0.625000 0.989463
vt 0.625000 0.760537
vt 0.625000 0.989463
vt 0.625000 0.760537
vn -1.0000 0.0000 0.0000
vn 0.0000 -0.4142 0.9102
vn 0.0000 -0.9918 0.1278
vn 1.0000 0.0000 0.0000
vn 0.0000 -0.2033 -0.9791
vn 0.0000 0.3414 -0.9399
vn 0.0000 -0.2928 0.9562
vn 0.0000 0.9188 -0.3946
vn 0.0000 1.0000 0.0082
vn -0.9982 0.0000 0.0597
vn 0.0000 -0.9815 0.1914
vn 0.9982 -0.0000 0.0597
vn 0.0000 -1.0000 0.0000
vn 0.0000 1.0000 0.0000
vn 0.0000 0.0000 1.0000
vn 0.0000 0.0000 -1.0000
vn 0.0000 -0.9360 0.3520
vn 0.0000 0.9919 -0.1271
vn 0.0000 -0.7797 -0.6262
vn 0.0000 0.3877 0.9218
vn 0.0000 -0.6511 -0.7590
vn 0.0000 -0.3237 -0.9462
vn 0.0000 -0.7536 0.6574
vn 0.0000 0.7088 0.7054
vn 0.0000 0.9756 0.2194
vn 0.0000 0.9102 0.4142
vn -0.0000 -0.9102 -0.4142
vn -0.0000 -0.9793 -0.2023
vn 0.0000 0.9718 -0.2356
vn -0.0000 -0.9666 0.2563
vn 0.0000 0.9982 0.0605
vn 0.0000 0.0472 -0.9989
vn -0.0000 -0.0728 0.9973
vn 0.0000 -0.2106 -0.9776
vn 0.0000 -0.3461 0.9382
vn 0.0000 -0.1233 0.9924
vn 0.0000 0.0640 0.9979
vn -0.9337 -0.3576 0.0199
vn 0.0000 -0.1124 -0.9937
vn 0.9337 -0.3576 0.0199
vn 0.0000 -0.7891 -0.6143
vn -0.9778 -0.1988 0.0657
vn 0.0000 -0.2140 -0.9768
vn 0.9778 -0.1988 0.0657
vn 0.0000 0.9940 0.1096
vn 0.0000 0.7897 0.6136
vn 0.0000 -0.1191 0.9929
vn 0.0000 -0.9918 -0.1275
usemtl gun
s off
f 5/1/1 24/2/1 43/3/1 41/4/1
f 19/5/2 3/6/2 7/7/2 17/8/2
f 54/9/1 47/10/1 5/1/1 20/11/1
f 45/12/3 48/13/3 4/14/3 8/15/3
f 53/16/4 46/17/4 3/6/4 19/5/4
f 20/11/5 5/1/5 1/18/5 18/19/5
f 6/20/6 12/21/6 9/22/6 2/23/6
f 48/13/4 49/24/4 11/25/4 4/14/4
f 45/26/1 50/27/1 12/21/1 6/20/1
f 4/14/7 11/25/7 10/28/7 8/29/7
f 12/21/5 16/30/5 14/31/5 9/22/5
f 49/24/4 51/32/4 15/33/4 11/25/4
f 50/27/1 52/34/1 16/30/1 12/21/1
f 11/25/2 15/33/2 13/35/2 10/28/2
f 16/30/5 20/11/5 18/19/5 14/31/5
f 51/32/4 53/16/4 19/5/4 15/33/4
f 52/34/1 54/9/1 20/11/1 16/30/1
f 17/36/1 13/37/1 83/38/1 84/39/1
f 55/40/8 56/41/8 22/42/8 21/43/8
f 30/44/9 29/45/9 36/46/9 35/47/9
f 47/10/1 7/48/1 22/49/1 56/50/1
f 46/17/4 1/18/4 23/51/4 55/40/4
f 25/52/4 27/53/4 39/54/4 37/55/4
f 29/56/10 31/57/10 34/58/10 36/59/10
f 31/60/11 32/61/11 33/62/11 34/63/11
f 32/61/12 30/44/12 35/47/12 33/62/12
f 68/64/4 57/65/4 30/44/4 32/61/4
f 66/66/13 68/64/13 32/61/13 31/60/13
f 58/67/1 66/68/1 31/57/1 29/56/1
f 57/65/14 58/69/14 29/45/14 30/44/14
f 25/52/15 26/70/15 34/63/15 33/62/15
f 28/71/15 27/53/15 35/47/15 36/72/15
f 27/53/15 25/52/15 33/62/15 35/47/15
f 26/70/15 28/71/15 36/72/15 34/63/15
f 38/73/15 37/55/15 39/54/15 40/74/15
f 26/70/13 25/52/13 37/55/13 38/73/13
f 28/71/1 26/70/1 38/73/1 40/74/1
f 27/53/14 28/71/14 40/74/14 39/54/14
f 42/75/16 41/4/16 43/3/16 44/76/16
f 1/18/17 5/1/17 41/4/17 42/75/17
f 23/51/4 1/18/4 42/75/4 44/76/4
f 24/77/18 23/51/18 44/76/18 43/78/18
f 3/6/4 46/17/4 55/40/4 21/43/4
f 5/1/1 47/10/1 56/50/1 24/2/1
f 23/51/8 24/77/8 56/41/8 55/40/8
f 13/37/1 17/36/1 54/9/1 52/34/1
f 14/31/4 18/19/4 53/16/4 51/32/4
f 10/79/1 13/37/1 52/34/1 50/27/1
f 9/22/4 14/31/4 51/32/4 49/24/4
f 8/80/1 10/79/1 50/27/1 45/26/1
f 2/23/4 9/22/4 49/24/4 48/13/4
f 18/19/4 1/18/4 46/17/4 53/16/4
f 6/81/19 2/23/19 48/13/19 45/12/19
f 17/36/1 7/48/1 47/10/1 54/9/1
f 61/82/14 62/83/14 58/69/14 57/65/14
f 62/84/1 65/85/1 66/68/1 58/67/1
f 63/86/16 64/87/16 71/88/16 69/89/16
f 67/90/4 61/82/4 57/65/4 68/64/4
f 103/91/4 104/92/4 61/82/4 67/90/4
f 102/93/13 103/91/13 67/90/13 65/94/13
f 101/95/1 102/96/1 65/85/1 62/84/1
f 104/92/14 101/97/14 62/83/14 61/82/14
f 63/86/13 59/98/13 66/66/13 65/94/13
f 60/99/13 64/87/13 67/90/13 68/64/13
f 59/98/13 60/99/13 68/64/13 66/66/13
f 64/87/13 63/86/13 65/94/13 67/90/13
f 72/100/20 70/101/20 74/102/20 76/103/20
f 64/87/4 60/99/4 72/100/4 71/88/4
f 60/99/15 59/98/15 70/101/15 72/100/15
f 59/98/1 63/86/1 69/89/1 70/101/1
f 73/104/21 75/105/21 79/106/21 77/107/21
f 70/101/1 69/89/1 73/104/1 74/102/1
f 69/89/22 71/88/22 75/105/22 73/104/22
f 71/88/4 72/100/4 76/103/4 75/105/4
f 77/107/23 79/106/23 80/108/23 78/109/23
f 75/105/4 76/103/4 80/108/4 79/106/4
f 76/103/24 74/102/24 78/109/24 80/108/24
f 74/102/1 73/104/1 77/107/1 78/109/1
f 81/110/25 84/111/25 88/112/25 85/113/25
f 19/5/26 17/8/26 84/111/26 81/110/26
f 15/33/4 19/5/4 81/110/4 82/114/4
f 13/35/27 15/33/27 82/114/27 83/115/27
f 88/116/1 87/117/1 91/118/1 92/119/1
f 83/115/28 82/114/28 86/120/28 87/121/28
f 84/39/1 83/38/1 87/117/1 88/116/1
f 82/114/4 81/110/4 85/113/4 86/120/4
f 92/119/1 91/118/1 95/122/1 96/123/1
f 86/120/4 85/113/4 89/124/4 90/125/4
f 85/113/29 88/112/29 92/126/29 89/124/29
f 87/121/30 86/120/30 90/125/30 91/127/30
f 94/128/31 93/129/31 96/130/31 95/131/31
f 90/125/4 89/124/4 93/129/4 94/128/4
f 89/124/32 92/126/32 96/130/32 93/129/32
f 91/127/33 90/125/33 94/128/33 95/131/33
f 105/132/14 106/133/14 98/134/14 97/135/14
f 106/136/1 114/137/1 99/138/1 98/139/1
f 114/140/13 116/141/13 100/142/13 99/143/13
f 116/141/4 105/132/4 97/135/4 100/142/4
f 97/135/14 98/134/14 101/97/14 104/92/14
f 98/139/1 99/138/1 102/96/1 101/95/1
f 100/144/34 93/145/34 96/146/34 99/147/34
f 100/142/4 97/135/4 104/92/4 103/91/4
f 100/144/1 93/145/1 94/148/1 103/149/1
f 95/150/1 102/151/1 99/147/1 96/146/1
f 94/148/35 103/149/35 102/151/35 95/150/35
f 115/152/4 109/153/4 105/132/4 116/141/4
f 108/154/36 107/155/36 118/156/36 120/157/36
f 110/158/1 113/159/1 114/137/1 106/136/1
f 109/153/14 110/160/14 106/133/14 105/132/14
f 21/43/14 22/42/14 110/160/14 109/153/14
f 22/49/1 7/48/1 113/159/1 110/158/1
f 7/7/13 3/6/13 115/152/13 113/161/13
f 3/6/4 21/43/4 109/153/4 115/152/4
f 111/162/13 107/155/13 114/140/13 113/161/13
f 108/154/13 112/163/13 115/152/13 116/141/13
f 107/155/13 108/154/13 116/141/13 114/140/13
f 112/163/13 111/162/13 113/161/13 115/152/13
f 120/157/37 118/156/37 122/164/37 124/165/37
f 107/155/38 111/162/38 117/166/38 118/156/38
f 111/162/39 112/163/39 119/167/39 117/166/39
f 112/163/40 108/154/40 120/157/40 119/167/40
f 121/168/41 123/169/41 127/170/41 125/171/41
f 118/156/42 117/166/42 121/168/42 122/164/42
f 117/166/43 119/167/43 123/169/43 121/168/43
f 119/167/44 120/157/44 124/165/44 123/169/44
f 128/172/45 126/173/45 130/174/45 132/175/45
f 123/169/4 124/165/4 128/172/4 127/170/4
f 124/165/46 122/164/46 126/173/46 128/172/46
f 122/164/1 121/168/1 125/171/1 126/173/1
f 129/176/47 131/177/47 132/175/47 130/174/47
f 126/173/1 125/171/1 129/176/1 130/174/1
f 125/171/48 127/170/48 131/177/48 129/176/48
f 127/170/4 128/172/4 132/175/4 131/177/4
